#!OML:ASF X:\für Bonn\!DataBase\2005_08_11_Bastian_Final\c3d\Bastian.ASF
:FULLY-SPECIFIED
:DEGREES
223
root -21.0105 17.465 0.808934 159.931 -60.1195 -168.429
lowerback 8.25624 -4.52243 8.02349
upperback 8.83947 -7.10392 7.39373
thorax 4.84106 -3.87487 3.57127
lowerneck -0.250896 -4.04428 4.05222
upperneck 20.3316 -7.23791 1.16834
head 6.12825 -3.55354 -0.727166
rclavicle -1.59028e-015 -3.97569e-014
rhumerus -25.7603 23.5579 -83.2209
rradius 63.5311
rwrist -59.0191
rhand 5.47211 2.87178
rfingers 7.12502
rthumb 30.8202 -24.5638
lclavicle -1.59028e-015 -3.97569e-014
lhumerus -26.552 -7.86915 96.593
lradius 14.8604
lwrist 10.292
lhand -9.28981 -7.54604
lfingers 7.12502
lthumb 16.6674 21.7584
rfemur -0.55989 -6.11926 22.341
rtibia 33.2029
rfoot -13.3302 -11.5193
rtoes -12.3279
lfemur 1.1142 10.9108 -16.0156
ltibia 27.9209
lfoot -17.1726 10.5269
ltoes 6.34714
224
root -20.9764 17.4689 0.828298 160.149 -59.6762 -168.708
lowerback 8.82958 -4.61153 8.25611
upperback 8.99888 -7.22884 7.58238
thorax 4.71435 -3.96593 3.70299
lowerneck -0.187394 -3.94726 4.14578
upperneck 20.0217 -7.00905 0.88039
head 6.00584 -3.45497 -0.811586
rclavicle 3.10104e-014 -5.725e-014
rhumerus -25.3538 23.6094 -82.7323
rradius 62.987
rwrist -58.5351
rhand 5.67015 3.02776
rfingers 7.12502
rthumb 31.009 -24.372
lclavicle 3.10104e-014 -5.725e-014
lhumerus -26.4989 -8.36596 96.9638
lradius 15.2918
lwrist 10.417
lhand -9.18051 -7.50125
lfingers 7.12502
lthumb 16.7727 21.7943
rfemur -0.653696 -5.92249 22.3374
rtibia 33.0684
rfoot -13.162 -11.3396
rtoes -12.2211
lfemur 0.974027 11.3263 -15.9903
ltibia 28.0643
lfoot -17.1067 10.6242
ltoes 6.5782
225
root -20.9405 17.4723 0.849615 160.33 -59.2442 -168.945
lowerback 9.44947 -4.70506 8.49423
upperback 9.14303 -7.35248 7.79246
thorax 4.55089 -4.06012 3.86294
lowerneck -0.11929 -3.8462 4.15747
upperneck 19.7439 -6.7807 0.614899
head 5.89734 -3.3604 -0.876629
rclavicle 3.65764e-014 -6.36111e-015
rhumerus -24.9453 23.7277 -82.2002
rradius 62.5285
rwrist -58.1259
rhand 5.75002 3.14319
rfingers 7.12502
rthumb 31.0851 -24.242
lclavicle 3.65764e-014 -6.36111e-015
lhumerus -26.4299 -8.80226 97.3346
lradius 15.7196
lwrist 10.5858
lhand -9.0836 -7.4621
lfingers 7.12502
lthumb 16.866 21.8255
rfemur -0.763542 -5.78097 22.337
rtibia 32.9465
rfoot -12.9633 -11.1315
rtoes -12.1724
lfemur 0.795224 11.7252 -15.9583
ltibia 28.2485
lfoot -17.0271 10.7491
ltoes 6.36486
226
root -20.9039 17.474 0.871263 160.455 -58.8043 -169.132
lowerback 10.0817 -4.79162 8.76429
upperback 9.31014 -7.46767 7.99603
thorax 4.40498 -4.1501 4.0016
lowerneck -0.0590985 -3.74271 4.18526
upperneck 19.4134 -6.54925 0.375217
head 5.77508 -3.26007 -0.935349
rclavicle 4.37326e-014 -9.06458e-014
rhumerus -24.4914 23.7983 -81.6788
rradius 62.1078
rwrist -57.6688
rhand 5.79515 3.20145
rfingers 7.12502
rthumb 31.1281 -24.1755
lclavicle 4.37326e-014 -9.06458e-014
lhumerus -26.3447 -9.45322 97.7485
lradius 16.2096
lwrist 10.9148
lhand -9.09675 -7.37826
lfingers 7.12502
lthumb 16.8533 21.9104
rfemur -0.87556 -5.65046 22.3569
rtibia 32.8454
rfoot -12.7745 -10.8798
rtoes -12.1486
lfemur 0.609055 12.1002 -15.8983
ltibia 28.4777
lfoot -16.9638 10.8261
ltoes 6.57064
227
root -20.866 17.476 0.893722 160.601 -58.404 -169.335
lowerback 10.743 -4.89007 9.00148
upperback 9.45669 -7.58914 8.19622
thorax 4.22623 -4.24608 4.16235
lowerneck 0.0228754 -3.63393 4.25776
upperneck 19.0793 -6.30542 0.0805238
head 5.6461 -3.15425 -1.01757
rclavicle -1.04163e-013 4.6118e-014
rhumerus -24.0396 23.8653 -81.1662
rradius 61.7302
rwrist -57.1884
rhand 5.82042 3.22444
rfingers 7.12502
rthumb 31.1522 -24.1479
lclavicle -1.04163e-013 4.6118e-014
lhumerus -26.2807 -10.0808 98.1296
lradius 16.7321
lwrist 11.2827
lhand -9.13005 -7.30647
lfingers 7.12502
lthumb 16.8212 21.9849
rfemur -1.00687 -5.58103 22.3427
rtibia 32.7708
rfoot -12.6 -10.5976
rtoes -12.0911
lfemur 0.358757 12.5114 -15.8522
ltibia 28.7799
lfoot -16.853 10.8626
ltoes 6.2372
